<svg width="22" height="26" viewBox="0 0 22 26" fill="none" xmlns="http://www.w3.org/2000/svg">
<path fill-rule="evenodd" clip-rule="evenodd" d="M0.657119 1.13576C0.746912 0.982874 0.910955 0.888977 1.08826 0.888977H14.4558C14.6326 0.888977 14.7963 0.982358 14.8863 1.13457L21.7577 12.7606C21.8145 12.8566 21.8366 12.9671 21.8238 13.0743C21.8366 13.1816 21.8145 13.292 21.7577 13.3881L14.8863 25.014C14.7963 25.1663 14.6326 25.2596 14.4558 25.2596H1.08826C0.910955 25.2596 0.746912 25.1657 0.657119 25.0129C0.567326 24.86 0.565214 24.671 0.651567 24.5161L7.03207 13.0743L0.651567 1.6325C0.565214 1.47764 0.567326 1.28864 0.657119 1.13576ZM7.86513 13.6336H20.451L14.1706 24.2596H1.93957L7.86513 13.6336ZM20.451 12.515H7.86513L1.93957 1.88898H14.1706L20.451 12.515Z" fill="black"/>
</svg>
