<svg xmlns="http://www.w3.org/2000/svg" xlink="http://www.w3.org/1999/xlink" width="0" height="0" style="display:none;"><symbol viewBox="0 0 24 24" id="beefont-activity">
<path fill-rule="evenodd" clip-rule="evenodd" d="M9 2C9.43043 2 9.81257 2.27543 9.94868 2.68377L15 17.8377L17.0513 11.6838C17.1874 11.2754 17.5696 11 18 11H22C22.5523 11 23 11.4477 23 12C23 12.5523 22.5523 13 22 13H18.7208L15.9487 21.3162C15.8126 21.7246 15.4304 22 15 22C14.5696 22 14.1874 21.7246 14.0513 21.3162L9 6.16228L6.94868 12.3162C6.81257 12.7246 6.43043 13 6 13H2C1.44772 13 1 12.5523 1 12C1 11.4477 1.44772 11 2 11H5.27924L8.05132 2.68377C8.18743 2.27543 8.56957 2 9 2Z" fill="black"/>
</symbol><symbol viewBox="0 0 22 26" id="beefont-beehively">
<path fill-rule="evenodd" clip-rule="evenodd" d="M0.657119 1.13576C0.746912 0.982874 0.910955 0.888977 1.08826 0.888977H14.4558C14.6326 0.888977 14.7963 0.982358 14.8863 1.13457L21.7577 12.7606C21.8145 12.8566 21.8366 12.9671 21.8238 13.0743C21.8366 13.1816 21.8145 13.292 21.7577 13.3881L14.8863 25.014C14.7963 25.1663 14.6326 25.2596 14.4558 25.2596H1.08826C0.910955 25.2596 0.746912 25.1657 0.657119 25.0129C0.567326 24.86 0.565214 24.671 0.651567 24.5161L7.03207 13.0743L0.651567 1.6325C0.565214 1.47764 0.567326 1.28864 0.657119 1.13576ZM7.86513 13.6336H20.451L14.1706 24.2596H1.93957L7.86513 13.6336ZM20.451 12.515H7.86513L1.93957 1.88898H14.1706L20.451 12.515Z" fill="black"/>
</symbol><symbol id="beefont-globe-o">
<g>
	<g>
		<path d="M256,0C114.508,0,0,114.497,0,256c0,141.492,114.497,256,256,256c141.492,0,256-114.497,256-256
			C512,114.508,397.503,0,256,0z M156.946,52.753c-7.747,21.099-14.25,42.547-19.499,64.295
			c-15.341-4.661-30.432-10.25-45.243-16.762C110.958,80.583,132.812,64.54,156.946,52.753z M72.338,124.24
			c19.171,8.878,38.791,16.3,58.802,22.253c-5.806,30.993-9.126,62.538-9.914,94.507H30.502
			C33.265,198.559,47.728,158.39,72.338,124.24z M72.338,387.76C47.728,353.61,33.265,313.441,30.502,271h90.724
			c0.788,31.969,4.108,63.514,9.914,94.507C111.129,371.46,91.51,378.882,72.338,387.76z M92.204,411.715
			c14.811-6.513,29.901-12.102,45.243-16.762c5.25,21.748,11.752,43.196,19.499,64.295
			C132.824,447.467,110.968,431.427,92.204,411.715z M241,481.498c-15.754-1.025-31.197-3.655-46.135-7.825
			c-11.865-28.12-21.335-56.952-28.398-86.363c24.318-5.437,49.199-8.616,74.533-9.515V481.498z M241,347.777
			c-27.448,0.907-54.405,4.307-80.751,10.175c-5.234-28.529-8.25-57.55-9.013-86.952H241V347.777z M241,241h-89.764
			c0.763-29.402,3.779-58.423,9.013-86.952c26.346,5.868,53.303,9.268,80.751,10.175V241z M241,134.205
			c-25.334-0.899-50.215-4.078-74.533-9.515C173.53,95.279,183,66.447,194.865,38.327c14.938-4.17,30.381-6.8,46.135-7.825V134.205z
			 M439.662,124.24c24.61,34.15,39.073,74.319,41.836,116.76h-90.724c-0.788-31.969-4.108-63.514-9.914-94.507
			C400.871,140.54,420.49,133.118,439.662,124.24z M419.796,100.285c-14.811,6.513-29.901,12.102-45.243,16.762
			c-5.25-21.748-11.752-43.196-19.499-64.295C379.176,64.533,401.032,80.573,419.796,100.285z M271,30.502
			c15.754,1.025,31.197,3.655,46.135,7.825C329,66.447,338.47,95.279,345.533,124.69c-24.318,5.437-49.199,8.616-74.533,9.515
			V30.502z M271,164.223c27.448-0.907,54.405-4.307,80.751-10.175c5.234,28.529,8.25,57.55,9.013,86.952H271V164.223z
			 M317.134,473.672c-14.937,4.171-30.38,6.801-46.134,7.826V377.795c25.334,0.899,50.215,4.078,74.533,9.515
			C338.469,416.721,329,445.553,317.134,473.672z M271,347.777V271h89.764c-0.763,29.402-3.779,58.423-9.013,86.952
			C325.405,352.084,298.448,348.684,271,347.777z M355.054,459.247c7.747-21.099,14.25-42.547,19.499-64.295
			c15.341,4.661,30.432,10.25,45.243,16.762C401.042,431.417,379.188,447.46,355.054,459.247z M439.662,387.76
			c-19.171-8.878-38.791-16.3-58.802-22.253c5.806-30.993,9.126-62.538,9.914-94.507h90.724
			C478.735,313.441,464.272,353.61,439.662,387.76z"/>
	</g>
</g>
<g>
</g>
<g>
</g>
<g>
</g>
<g>
</g>
<g>
</g>
<g>
</g>
<g>
</g>
<g>
</g>
<g>
</g>
<g>
</g>
<g>
</g>
<g>
</g>
<g>
</g>
<g>
</g>
<g>
</g>
</symbol><symbol id="beefont-globe">
<g>
	<g>
		<path d="M210.687,3.529c-19.39,38.496-34.205,79.047-44.25,120.851c24.382,5.454,49.322,8.691,74.537,9.61V0
			C230.752,0.587,220.643,1.764,210.687,3.529z"/>
	</g>
</g>
<g>
	<g>
		<path d="M351.802,153.811c-26.452,5.892-53.455,9.317-80.775,10.236v76.927h89.899
			C360.143,211.626,357.089,182.481,351.802,153.811z"/>
	</g>
</g>
<g>
	<g>
		<path d="M301.305,3.528c-9.953-1.764-20.06-2.941-30.279-3.528v133.982c25.21-0.909,50.121-4.112,74.525-9.566
			C335.502,82.593,320.678,42.007,301.305,3.528z"/>
	</g>
</g>
<g>
	<g>
		<path d="M271.026,378.018V512c10.224-0.587,20.335-1.765,30.292-3.53c18.851-37.396,33.989-77.839,44.316-120.868
			C321.204,382.137,296.265,378.928,271.026,378.018z"/>
	</g>
</g>
<g>
	<g>
		<path d="M390.991,271.026c-0.8,31.883-4.138,63.573-9.976,94.722c29.881,8.867,58.626,20.866,86.083,35.959
			c26.664-38.457,42.186-83.356,44.902-130.681H390.991z"/>
	</g>
</g>
<g>
	<g>
		<path d="M166.366,387.602c9.711,40.459,24.266,81.093,44.316,120.867c9.957,1.766,20.069,2.943,30.292,3.53V378.018
			C215.736,378.928,190.796,382.137,166.366,387.602z"/>
	</g>
</g>
<g>
	<g>
		<path d="M160.202,153.781c-5.281,28.657-8.346,57.801-9.126,87.193h89.898v-76.912
			C213.651,163.135,186.623,159.669,160.202,153.781z"/>
	</g>
</g>
<g>
	<g>
		<path d="M44.904,110.29C18.239,148.747,2.717,193.648,0,240.974h121.014c0.805-31.951,4.169-63.631,10.021-94.756
			C101.198,137.374,72.327,125.355,44.904,110.29z"/>
	</g>
</g>
<g>
	<g>
		<path d="M137.291,395.246c-25.02,7.582-49.506,17.574-73.575,30.426c29.115,32.907,66.19,58.343,108.996,72.994
			C157.717,465.359,145.858,430.769,137.291,395.246z"/>
	</g>
</g>
<g>
	<g>
		<path d="M63.725,86.318c23.547,12.564,48.209,22.737,73.636,30.43c8.566-35.485,20.409-70.106,35.4-103.431
			C131.79,27.331,94.167,51.915,63.725,86.318z"/>
	</g>
</g>
<g>
	<g>
		<path d="M121.009,271.026H0c2.717,47.325,18.238,92.224,44.902,130.681c27.428-15.076,56.17-27.082,86.084-35.959
			C125.147,334.599,121.809,302.909,121.009,271.026z"/>
	</g>
</g>
<g>
	<g>
		<path d="M339.232,13.316c14.979,33.322,26.819,67.969,35.388,103.466c25.584-7.746,50.055-17.847,73.664-30.453
			C419.092,53.335,381.97,27.933,339.232,13.316z"/>
	</g>
</g>
<g>
	<g>
		<path d="M374.71,395.246c-8.564,35.509-20.421,70.099-35.421,103.42c42.814-14.654,79.887-40.094,108.996-72.994
			C425.216,413.354,400.823,403.159,374.71,395.246z"/>
	</g>
</g>
<g>
	<g>
		<path d="M151.069,271.026c0.774,29.337,3.816,58.495,9.084,87.173c26.467-5.899,53.484-9.327,80.821-10.246v-76.927H151.069z"/>
	</g>
</g>
<g>
	<g>
		<path d="M467.098,110.293c-26.887,14.779-55.599,26.917-86.146,35.977c5.858,31.136,9.227,62.807,10.034,94.704H512
			C509.283,193.649,493.762,148.75,467.098,110.293z"/>
	</g>
</g>
<g>
	<g>
		<path d="M271.026,271.026v76.927c27.336,0.919,54.354,4.347,80.821,10.246c5.268-28.678,8.31-57.836,9.084-87.173H271.026z"/>
	</g>
</g>
<g>
</g>
<g>
</g>
<g>
</g>
<g>
</g>
<g>
</g>
<g>
</g>
<g>
</g>
<g>
</g>
<g>
</g>
<g>
</g>
<g>
</g>
<g>
</g>
<g>
</g>
<g>
</g>
<g>
</g>
</symbol></svg>